<?xml version="1.0" encoding="UTF-8" standalone="no"?>
<!-- Created with Inkscape (http://www.inkscape.org/) -->

<svg
   width="158.92574mm"
   height="47.385574mm"
   viewBox="0 0 158.92574 47.385574"
   version="1.1"
   id="svg28393"
   xmlns:inkscape="http://www.inkscape.org/namespaces/inkscape"
   xmlns:sodipodi="http://sodipodi.sourceforge.net/DTD/sodipodi-0.dtd"
   xmlns="http://www.w3.org/2000/svg"
   xmlns:svg="http://www.w3.org/2000/svg"
   preserveAspectRatio="none">
  <sodipodi:namedview
     id="namedview28395"
     pagecolor="#ffffff"
     bordercolor="#000000"
     borderopacity="0.25"
     inkscape:showpageshadow="2"
     inkscape:pageopacity="0.0"
     inkscape:pagecheckerboard="0"
     inkscape:deskcolor="#d1d1d1"
     inkscape:document-units="mm"
     showgrid="false" />
  <defs
     id="defs28390" />
  <g
     inkscape:label="Capa 1"
     inkscape:groupmode="layer"
     id="layer1"
     transform="translate(-27.161975,-97.436414)">
    <g
       id="g12073"
       inkscape:export-filename="../REPO/ornament/button-ornament.svg"
       inkscape:export-xdpi="96"
       inkscape:export-ydpi="96"
       transform="matrix(0.35277777,0,0,-0.35277777,-288.96127,652.57503)">
      <path
         d="m 910.885,1494.02 c -6.934,0.44 -11.701,6.07 -14.736,11.27 3.468,-9.97 6.068,-19.94 6.502,-32.94 0.867,7.81 2.6,16.91 8.234,21.67"
         style="fill:#FFFFFF;fill-opacity:1;fill-rule:nonzero;stroke:none;stroke-width:0.1"
         id="path7118" />
      <path
         d="m 941.651,1539.95 c -2.599,6.51 0.866,14.31 6.066,19.94 -4.766,-4.33 -17.765,-11.7 -26.432,-12.57 6.932,0.44 17.332,-2.16 20.366,-7.37"
         style="fill:#FFFFFF;fill-opacity:1;fill-rule:nonzero;stroke:none;stroke-width:0.1"
         id="path7120" />
      <path
         d="m 1341.47,1533.96 c -13.46,19.57 -37.92,7.34 -42.81,1.23 3.67,34.24 -34.32,39.6 -89.28,14.51 -56.25,-25.68 -75.8,-10.41 -88.04,-10.41 -12.23,0 -31.78,-15.27 -88.04,10.41 -54.949,25.09 -92.942,19.73 -89.271,-14.51 -4.894,6.11 -29.352,18.34 -42.803,-1.23 -13.454,-19.56 2.443,-39.13 14.672,-37.91 -20.79,-22.01 -8.559,-44.02 8.563,-42.8 15.514,1.11 21.992,19.29 33.08,19.05 -19.129,2.17 -25.408,-23.51 -40.418,-11.71 -17.122,13.45 6.114,37.91 12.229,40.35 -8.56,0 -22.147,7.39 -17.121,20.79 7.337,19.57 28.127,9.79 37.787,-0.57 -4.768,28.7 27.029,32.37 64.942,25.03 39.36,-7.62 62.65,-13.88 106.38,-13.88 43.74,0 67.03,6.26 106.39,13.88 37.91,7.34 69.71,3.67 64.94,-25.03 9.66,10.36 30.45,20.14 37.79,0.57 5.03,-13.4 -8.56,-20.79 -17.12,-20.79 6.11,-2.44 29.35,-26.9 12.23,-40.35 -15.02,-11.8 -21.29,13.88 -40.42,11.71 11.09,0.24 17.56,-17.94 33.08,-19.05 17.12,-1.22 29.35,20.79 8.56,42.8 12.23,-1.22 28.13,18.35 14.68,37.91"
         style="fill:#FFFFFF;fill-opacity:1;fill-rule:nonzero;stroke:none;stroke-width:0.1"
         id="path7122"
         sodipodi:nodetypes="cccscccccccccccsccccccccc" />
      <path
         d="m 1331.8,1494.02 c 5.64,-4.76 7.37,-13.86 8.24,-21.67 0.43,13 3.03,22.97 6.5,32.94 -3.03,-5.2 -7.8,-10.83 -14.74,-11.27"
         style="fill:#FFFFFF;fill-opacity:1;fill-rule:nonzero;stroke:none;stroke-width:0.1"
         id="path7124" />
      <path
         d="m 1301.04,1539.95 c 3.03,5.21 13.43,7.81 20.37,7.37 -8.67,0.87 -21.67,8.24 -26.44,12.57 5.2,-5.63 8.67,-13.43 6.07,-19.94"
         style="fill:#FFFFFF;fill-opacity:1;fill-rule:nonzero;stroke:none;stroke-width:0.1"
         id="path7126" />
      <path
         d="m 1225.64,1573.3 c -30.78,3.42 -58.13,-21.59 -104.3,-21.59 -46.16,0 -73.51,25.01 -104.29,21.59 39.33,-3.42 73.52,-29.3275 104.29,-29.3275 30.78,0 64.97,25.9075 104.3,29.3275"
         style="fill:#FFFFFF;fill-opacity:1;fill-rule:nonzero;stroke:none;stroke-width:0.1"
         id="path7128"
         sodipodi:nodetypes="cscsc" />
      <path
         d="m 1286.21,1470.68 c -9.91,0.65 -2.62,-14.71 3.29,-11.52 1.97,-12.15 -31.28,-5.13 -45.32,0 -14.04,5.13 -86.59,28.1382 -122.84,-11.3018 -36.25,39.44 -108.79,16.4318 -122.828,11.3018 -14.038,-5.13 -47.294,-12.15 -45.322,0 5.912,-3.19 13.201,12.17 3.286,11.52 -9.855,-0.64 -15.162,-20.94 4.834,-22.83 35.888,-3.4 130.2,47.87 160.03,-8.55 29.84,56.42 124.15,5.15 160.04,8.55 20,1.89 14.69,22.19 4.83,22.83"
         style="fill:#FFFFFF;fill-opacity:1;fill-rule:nonzero;stroke:none;stroke-width:0.1"
         id="path7130"
         sodipodi:nodetypes="ccscscccccc" />
    </g>
  </g>
</svg>
